<mxfile host="" modified="2021-02-16T01:02:51.292Z" agent="5.0 (Windows NT 6.2; Win64; x64) AppleWebKit/537.36 (KHTML, like Gecko) Chrome/84.0.4147.105 Safari/537.36" etag="-FBaPU35n1pg5-TuZ6LZ" version="13.7.9" type="embed"><diagram id="1XTyoEW7qzfLBBSgb7DO" name="Page-1"><mxGraphModel dx="721" dy="567" grid="1" gridSize="10" guides="1" tooltips="1" connect="1" arrows="1" fold="1" page="1" pageScale="1" pageWidth="850" pageHeight="1100" math="0" shadow="0"><root><mxCell id="0"/><mxCell id="1" parent="0"/><mxCell id="5" value="Room1" style="rounded=0;whiteSpace=wrap;html=1;fillColor=#0050ef;strokeColor=#001DBC;fontColor=#ffffff;" parent="1" vertex="1"><mxGeometry x="2" y="168" width="120" height="70" as="geometry"/></mxCell><mxCell id="6" value="Room2" style="rounded=0;whiteSpace=wrap;html=1;fillColor=#6a00ff;strokeColor=#3700CC;fontColor=#ffffff;" parent="1" vertex="1"><mxGeometry x="2" y="85" width="120" height="80" as="geometry"/></mxCell><mxCell id="7" value="Room3" style="rounded=0;whiteSpace=wrap;html=1;fillColor=#1ba1e2;strokeColor=#006EAF;fontColor=#ffffff;" parent="1" vertex="1"><mxGeometry x="2" y="2" width="120" height="80" as="geometry"/></mxCell><object label="" type="path" id="35"><mxCell style="edgeStyle=orthogonalEdgeStyle;rounded=0;orthogonalLoop=1;jettySize=auto;html=1;exitX=0.5;exitY=0;exitDx=0;exitDy=0;entryX=1;entryY=0.5;entryDx=0;entryDy=0;" edge="1" parent="1" source="robot" target="7"><mxGeometry relative="1" as="geometry"><Array as="points"><mxPoint x="420" y="40"/><mxPoint x="420" y="42"/></Array></mxGeometry></mxCell></object><object label="robot" movable="true" speed="5" type="robot" id="robot"><mxCell style="ellipse;whiteSpace=wrap;html=1;aspect=fixed;" parent="1" vertex="1"><mxGeometry x="405" y="208" width="30" height="30" as="geometry"/></mxCell></object></root></mxGraphModel></diagram></mxfile>